<?xml version="1.0" encoding="utf-8"?>
<!-- Generator: Adobe Illustrator 22.1.0, SVG Export Plug-In . SVG Version: 6.00 Build 0)  -->
<svg version="1.1" id="Camada_1" xmlns="http://www.w3.org/2000/svg" xmlns:xlink="http://www.w3.org/1999/xlink" x="0px" y="0px"
	 viewBox="0 0 150 48.4" style="enable-background:new 0 0 150 48.4;" xml:space="preserve">
<style type="text/css">
	.st0{fill:#FFFFFF;}
	.st1{fill:#9C1006;}
	.st2{fill:#D20A11;}
	.st3{fill:none;stroke:#D20A11;stroke-miterlimit:10;}
</style>
<g>
	<rect y="-0.1" class="st0" width="150" height="48.5"/>
	<g>
		<g>
			<path d="M85.3,44c0-0.1,0.1-0.2,0.2-0.2c0.1,0,0.2,0.1,0.2,0.2v1.3h1.9V44c0-0.1,0.1-0.2,0.2-0.2c0.1,0,0.2,0.1,0.2,0.2v2.9
				c0,0.1-0.1,0.2-0.2,0.2c-0.1,0-0.2-0.1-0.2-0.2v-1.3h-1.9v1.3c0,0.1-0.1,0.2-0.2,0.2c-0.1,0-0.2-0.1-0.2-0.2V44z"/>
			<path d="M88.7,44c0-0.1,0.1-0.2,0.2-0.2c0.1,0,0.2,0.1,0.2,0.2v2.9c0,0.1-0.1,0.2-0.2,0.2c-0.1,0-0.2-0.1-0.2-0.2V44z"/>
			<path d="M89.8,46.7c0,0-0.1-0.1-0.1-0.1c0-0.1,0.1-0.2,0.2-0.2c0,0,0.1,0,0.1,0c0.3,0.3,0.6,0.4,1,0.4c0.4,0,0.7-0.2,0.7-0.5v0
				c0-0.3-0.2-0.5-0.8-0.6c-0.7-0.2-1.1-0.4-1.1-0.9v0c0-0.5,0.4-0.9,1.1-0.9c0.4,0,0.7,0.1,1,0.3c0,0,0.1,0.1,0.1,0.1
				c0,0.1-0.1,0.2-0.2,0.2c0,0-0.1,0-0.1,0c-0.3-0.2-0.5-0.3-0.8-0.3c-0.4,0-0.7,0.2-0.7,0.5v0c0,0.3,0.2,0.5,0.9,0.6
				c0.7,0.2,1,0.4,1,0.9v0c0,0.5-0.5,0.9-1.1,0.9C90.5,47.1,90.1,47,89.8,46.7z"/>
			<path d="M93.4,44.2h-0.9c-0.1,0-0.2-0.1-0.2-0.2c0-0.1,0.1-0.2,0.2-0.2h2.2c0.1,0,0.2,0.1,0.2,0.2c0,0.1-0.1,0.2-0.2,0.2h-0.9
				v2.7c0,0.1-0.1,0.2-0.2,0.2c-0.1,0-0.2-0.1-0.2-0.2V44.2z"/>
			<path d="M95.1,45.5L95.1,45.5c0-0.9,0.7-1.7,1.6-1.7c1,0,1.6,0.8,1.6,1.6v0c0,0.9-0.7,1.7-1.6,1.7C95.7,47.1,95.1,46.4,95.1,45.5
				z M98,45.5L98,45.5c0-0.7-0.5-1.3-1.3-1.3c-0.7,0-1.3,0.6-1.3,1.3v0c0,0.7,0.5,1.3,1.3,1.3C97.4,46.8,98,46.2,98,45.5z
				 M96.6,43.5C96.6,43.5,96.6,43.4,96.6,43.5l0.3-0.5c0-0.1,0.1-0.1,0.2-0.1c0.1,0,0.2,0.1,0.2,0.1c0,0,0,0.1-0.1,0.1l-0.3,0.3
				C96.8,43.5,96.8,43.6,96.6,43.5C96.6,43.6,96.6,43.5,96.6,43.5z"/>
			<path d="M99,44.1c0-0.1,0.1-0.2,0.2-0.2h1.2c0.4,0,0.7,0.1,0.9,0.3c0.2,0.2,0.2,0.4,0.2,0.6v0c0,0.5-0.4,0.8-0.9,0.9l0.8,1
				c0,0,0.1,0.1,0.1,0.1c0,0.1-0.1,0.2-0.2,0.2c-0.1,0-0.1,0-0.2-0.1l-0.9-1.2h-0.9v1.1c0,0.1-0.1,0.2-0.2,0.2
				C99,47.1,99,47,99,46.9V44.1z M100.3,45.5c0.5,0,0.8-0.2,0.8-0.7v0c0-0.4-0.3-0.6-0.8-0.6h-1v1.3H100.3z"/>
			<path d="M102.2,44c0-0.1,0.1-0.2,0.2-0.2c0.1,0,0.2,0.1,0.2,0.2v2.9c0,0.1-0.1,0.2-0.2,0.2c-0.1,0-0.2-0.1-0.2-0.2V44z"/>
			<path d="M103.1,46.8l1.3-2.8c0-0.1,0.1-0.2,0.2-0.2h0c0.1,0,0.2,0.1,0.2,0.2l1.3,2.8c0,0,0,0.1,0,0.1c0,0.1-0.1,0.2-0.2,0.2
				c-0.1,0-0.1-0.1-0.2-0.1l-0.3-0.7h-1.8l-0.3,0.7c0,0.1-0.1,0.1-0.2,0.1C103.2,47.1,103.1,47,103.1,46.8
				C103.1,46.9,103.1,46.9,103.1,46.8z M105.4,45.9l-0.7-1.6l-0.7,1.6H105.4z"/>
			<path d="M108,44.1c0-0.1,0.1-0.2,0.2-0.2h1c0.7,0,1.2,0.4,1.2,1v0c0,0.7-0.6,1-1.3,1h-0.8v1c0,0.1-0.1,0.2-0.2,0.2
				c-0.1,0-0.2-0.1-0.2-0.2V44.1z M109.2,45.6c0.5,0,0.9-0.3,0.9-0.7v0c0-0.5-0.3-0.7-0.9-0.7h-0.8v1.4H109.2z"/>
			<path d="M110.9,44.1c0-0.1,0.1-0.2,0.2-0.2h1.2c0.4,0,0.7,0.1,0.9,0.3c0.2,0.2,0.2,0.4,0.2,0.6v0c0,0.5-0.4,0.8-0.9,0.9l0.8,1
				c0,0,0.1,0.1,0.1,0.1c0,0.1-0.1,0.2-0.2,0.2c-0.1,0-0.1,0-0.2-0.1l-0.9-1.2h-0.9v1.1c0,0.1-0.1,0.2-0.2,0.2
				c-0.1,0-0.2-0.1-0.2-0.2V44.1z M112.3,45.5c0.5,0,0.8-0.2,0.8-0.7v0c0-0.4-0.3-0.6-0.8-0.6h-1v1.3H112.3z"/>
			<path d="M113.9,46.8l1.3-2.8c0-0.1,0.1-0.2,0.2-0.2h0c0.1,0,0.2,0.1,0.2,0.2l1.3,2.8c0,0,0,0.1,0,0.1c0,0.1-0.1,0.2-0.2,0.2
				c-0.1,0-0.1-0.1-0.2-0.1l-0.3-0.7h-1.8l-0.3,0.7c0,0.1-0.1,0.1-0.2,0.1C114,47.1,113.9,47,113.9,46.8
				C113.9,46.9,113.9,46.9,113.9,46.8z M116.2,45.9l-0.7-1.6l-0.7,1.6H116.2z"/>
			<path d="M118.8,44.1c0-0.1,0.1-0.2,0.2-0.2h2c0.1,0,0.2,0.1,0.2,0.2c0,0.1-0.1,0.2-0.2,0.2h-1.8v1.1h1.6c0.1,0,0.2,0.1,0.2,0.2
				c0,0.1-0.1,0.2-0.2,0.2h-1.6v1.2c0,0.1-0.1,0.2-0.2,0.2c-0.1,0-0.2-0.1-0.2-0.2V44.1z"/>
			<path d="M121.1,46.8l1.3-2.8c0-0.1,0.1-0.2,0.2-0.2h0c0.1,0,0.2,0.1,0.2,0.2l1.3,2.8c0,0,0,0.1,0,0.1c0,0.1-0.1,0.2-0.2,0.2
				c-0.1,0-0.1-0.1-0.2-0.1l-0.3-0.7h-1.8l-0.3,0.7c0,0.1-0.1,0.1-0.2,0.1C121.2,47.1,121.1,47,121.1,46.8
				C121.1,46.9,121.1,46.9,121.1,46.8z M123.4,45.9l-0.7-1.6l-0.7,1.6H123.4z"/>
			<path d="M124.6,46.9L124.6,46.9c0-0.1,0-0.1,0.1-0.2l2-2.6h-1.9c-0.1,0-0.2-0.1-0.2-0.2c0-0.1,0.1-0.2,0.2-0.2h2.2
				c0.1,0,0.2,0.1,0.2,0.2v0c0,0.1,0,0.1-0.1,0.2l-2,2.6h1.9c0.1,0,0.2,0.1,0.2,0.2c0,0.1-0.1,0.2-0.2,0.2h-2.3
				C124.7,47.1,124.6,47,124.6,46.9z"/>
			<path d="M127.8,46.9v-2.8c0-0.1,0.1-0.2,0.2-0.2h2c0.1,0,0.2,0.1,0.2,0.2c0,0.1-0.1,0.2-0.2,0.2h-1.8v1.1h1.6
				c0.1,0,0.2,0.1,0.2,0.2c0,0.1-0.1,0.2-0.2,0.2h-1.6v1.1h1.8c0.1,0,0.2,0.1,0.2,0.2c0,0.1-0.1,0.2-0.2,0.2h-2
				C127.9,47.1,127.8,47,127.8,46.9z"/>
			<path d="M130.8,44.1c0-0.1,0.1-0.2,0.2-0.2h1.2c0.4,0,0.7,0.1,0.9,0.3c0.2,0.2,0.2,0.4,0.2,0.6v0c0,0.5-0.4,0.8-0.9,0.9l0.8,1
				c0,0,0.1,0.1,0.1,0.1c0,0.1-0.1,0.2-0.2,0.2c-0.1,0-0.1,0-0.2-0.1l-0.9-1.2h-0.9v1.1c0,0.1-0.1,0.2-0.2,0.2
				c-0.1,0-0.2-0.1-0.2-0.2V44.1z M132.1,45.5c0.5,0,0.8-0.2,0.8-0.7v0c0-0.4-0.3-0.6-0.8-0.6h-1v1.3H132.1z"/>
			<path d="M135,46.8l1.3-2.8c0-0.1,0.1-0.2,0.2-0.2h0c0.1,0,0.2,0.1,0.2,0.2l1.3,2.8c0,0,0,0.1,0,0.1c0,0.1-0.1,0.2-0.2,0.2
				c-0.1,0-0.1-0.1-0.2-0.1l-0.3-0.7h-1.8l-0.3,0.7c0,0.1-0.1,0.1-0.2,0.1C135,47.1,134.9,47,135,46.8
				C134.9,46.9,134.9,46.9,135,46.8z M137.2,45.9l-0.7-1.6l-0.7,1.6H137.2z"/>
			<path d="M139.7,46.7c0,0-0.1-0.1-0.1-0.1c0-0.1,0.1-0.2,0.2-0.2c0,0,0.1,0,0.1,0c0.3,0.3,0.6,0.4,1,0.4c0.4,0,0.7-0.2,0.7-0.5v0
				c0-0.3-0.2-0.5-0.8-0.6c-0.7-0.2-1.1-0.4-1.1-0.9v0c0-0.5,0.4-0.9,1.1-0.9c0.4,0,0.7,0.1,1,0.3c0,0,0.1,0.1,0.1,0.1
				c0,0.1-0.1,0.2-0.2,0.2c0,0-0.1,0-0.1,0c-0.3-0.2-0.5-0.3-0.8-0.3c-0.4,0-0.7,0.2-0.7,0.5v0c0,0.3,0.2,0.5,0.9,0.6
				c0.7,0.2,1,0.4,1,0.9v0c0,0.5-0.5,0.9-1.1,0.9C140.5,47.1,140.1,47,139.7,46.7z"/>
			<path d="M142.6,45.7V44c0-0.1,0.1-0.2,0.2-0.2c0.1,0,0.2,0.1,0.2,0.2v1.7c0,0.7,0.4,1.1,1,1.1c0.6,0,1-0.4,1-1.1V44
				c0-0.1,0.1-0.2,0.2-0.2c0.1,0,0.2,0.1,0.2,0.2v1.7c0,0.9-0.5,1.4-1.3,1.4C143.1,47.1,142.6,46.6,142.6,45.7z"/>
			<path d="M145.7,46.8L147,44c0-0.1,0.1-0.2,0.2-0.2h0c0.1,0,0.2,0.1,0.2,0.2l1.3,2.8c0,0,0,0.1,0,0.1c0,0.1-0.1,0.2-0.2,0.2
				c-0.1,0-0.1-0.1-0.2-0.1l-0.3-0.7h-1.8L146,47c0,0.1-0.1,0.1-0.2,0.1C145.7,47.1,145.7,47,145.7,46.8
				C145.7,46.9,145.7,46.9,145.7,46.8z M148,45.9l-0.7-1.6l-0.7,1.6H148z"/>
		</g>
		<g>
			<path class="st1" d="M120.1,2.8L119.6,3c0,0-0.1,0-0.1,0c-0.1,0-0.2-0.1-0.2-0.2c0-0.1,0.1-0.1,0.1-0.2l0.6-0.2
				c0.1,0,0.2,0,0.2,0h0c0.1,0,0.2,0.1,0.2,0.2v3.3c0,0.1-0.1,0.2-0.2,0.2c-0.1,0-0.2-0.1-0.2-0.2V2.8z"/>
			<path class="st1" d="M121.5,5.8c-0.1,0-0.1-0.1-0.1-0.2c0-0.1,0.1-0.2,0.2-0.2c0,0,0.1,0,0.1,0c0.3,0.2,0.5,0.3,0.8,0.3
				c0.7,0,1.1-0.7,1.1-1.6c-0.2,0.3-0.5,0.6-1,0.6c-0.7,0-1.3-0.5-1.3-1.1v0c0-0.7,0.5-1.2,1.3-1.2c0.4,0,0.7,0.1,1,0.4
				c0.3,0.3,0.5,0.7,0.5,1.4v0c0,1.2-0.6,2-1.5,2C122.1,6.2,121.8,6,121.5,5.8z M123.6,3.6L123.6,3.6c0-0.5-0.4-0.8-0.9-0.8
				c-0.5,0-0.9,0.4-0.9,0.9v0c0,0.5,0.4,0.8,0.9,0.8C123.2,4.4,123.6,4,123.6,3.6z"/>
			<path class="st1" d="M125.1,5.8c-0.3-0.3-0.5-0.7-0.5-1.4v0c0-1.1,0.6-2,1.5-2c0.4,0,0.7,0.1,0.9,0.3c0.1,0,0.1,0.1,0.1,0.2
				c0,0.1-0.1,0.2-0.2,0.2c0,0-0.1,0-0.1,0c-0.2-0.2-0.5-0.3-0.8-0.3c-0.7,0-1.1,0.7-1.1,1.6c0.2-0.3,0.5-0.6,1-0.6
				c0.7,0,1.3,0.4,1.3,1.1v0c0,0.7-0.6,1.2-1.3,1.2C125.7,6.2,125.4,6,125.1,5.8z M127,5L127,5c0-0.5-0.4-0.8-0.9-0.8
				c-0.5,0-0.9,0.4-0.9,0.8v0c0,0.5,0.4,0.8,0.9,0.8C126.6,5.8,127,5.4,127,5z"/>
			<path class="st1" d="M128,5.1L128,5.1c0-0.4,0.3-0.7,0.7-0.9c-0.3-0.2-0.6-0.4-0.6-0.8v0c0-0.6,0.6-1,1.2-1c0.7,0,1.2,0.4,1.2,1
				v0c0,0.4-0.3,0.7-0.6,0.8c0.4,0.2,0.7,0.5,0.7,0.9v0c0,0.6-0.6,1-1.4,1C128.6,6.1,128,5.7,128,5.1z M130.3,5.1L130.3,5.1
				c0-0.4-0.4-0.7-1-0.7c-0.5,0-1,0.3-1,0.7v0c0,0.4,0.4,0.7,1,0.7C130,5.8,130.3,5.5,130.3,5.1z M130.2,3.4L130.2,3.4
				c0-0.4-0.4-0.6-0.8-0.6c-0.5,0-0.8,0.3-0.8,0.6v0c0,0.4,0.4,0.7,0.8,0.7C129.8,4.1,130.2,3.8,130.2,3.4z"/>
			<path d="M133.1,4.3L133.1,4.3c0-0.4,0.3-0.7,0.7-0.7c0.4,0,0.7,0.3,0.7,0.7v0c0,0.4-0.3,0.7-0.7,0.7
				C133.4,4.9,133.1,4.6,133.1,4.3z"/>
			<path class="st1" d="M136.9,5.7l1.2-1.1c0.6-0.5,0.8-0.8,0.8-1.1c0-0.4-0.3-0.7-0.7-0.7c-0.4,0-0.6,0.2-0.9,0.5
				c0,0-0.1,0.1-0.2,0.1c-0.1,0-0.2-0.1-0.2-0.2c0,0,0-0.1,0-0.1c0.3-0.4,0.6-0.7,1.2-0.7c0.7,0,1.1,0.4,1.1,1v0
				c0,0.5-0.3,0.9-0.9,1.4l-1,0.9h1.8c0.1,0,0.2,0.1,0.2,0.2c0,0.1-0.1,0.2-0.2,0.2H137c-0.1,0-0.2-0.1-0.2-0.2
				C136.8,5.8,136.9,5.8,136.9,5.7z"/>
			<path class="st1" d="M140,4.3L140,4.3c0-1,0.6-1.9,1.5-1.9s1.5,0.9,1.5,1.9v0c0,1-0.6,1.9-1.5,1.9C140.6,6.2,140,5.3,140,4.3z
				 M142.7,4.3L142.7,4.3c0-0.8-0.4-1.5-1.1-1.5c-0.7,0-1.1,0.7-1.1,1.5v0c0,0.8,0.4,1.5,1.1,1.5C142.3,5.8,142.7,5.1,142.7,4.3z"/>
			<path class="st1" d="M144.3,2.8L143.8,3c0,0-0.1,0-0.1,0c-0.1,0-0.2-0.1-0.2-0.2c0-0.1,0.1-0.1,0.1-0.2l0.6-0.2
				c0.1,0,0.2,0,0.2,0h0c0.1,0,0.2,0.1,0.2,0.2v3.3c0,0.1-0.1,0.2-0.2,0.2c-0.1,0-0.2-0.1-0.2-0.2V2.8z"/>
			<path class="st1" d="M145.5,5.1L145.5,5.1c0-0.4,0.3-0.7,0.7-0.9c-0.3-0.2-0.6-0.4-0.6-0.8v0c0-0.6,0.6-1,1.2-1s1.2,0.4,1.2,1v0
				c0,0.4-0.3,0.7-0.6,0.8c0.4,0.2,0.7,0.5,0.7,0.9v0c0,0.6-0.6,1-1.4,1C146.1,6.1,145.5,5.7,145.5,5.1z M147.8,5.1L147.8,5.1
				c0-0.4-0.4-0.7-1-0.7c-0.5,0-1,0.3-1,0.7v0c0,0.4,0.4,0.7,1,0.7C147.5,5.8,147.8,5.5,147.8,5.1z M147.7,3.4L147.7,3.4
				c0-0.4-0.4-0.6-0.8-0.6s-0.8,0.3-0.8,0.6v0c0,0.4,0.4,0.7,0.8,0.7S147.7,3.8,147.7,3.4z"/>
		</g>
		<g>
			<path class="st2" d="M126.5,24.7l1.4-3c0-0.1,0.1-0.2,0.2-0.2h0c0.1,0,0.2,0.1,0.2,0.2l1.4,3c0,0,0,0.1,0,0.1
				c0,0.1-0.1,0.2-0.2,0.2c-0.1,0-0.2-0.1-0.2-0.1l-0.4-0.8h-1.8l-0.4,0.8c0,0.1-0.1,0.1-0.2,0.1c-0.1,0-0.2-0.1-0.2-0.2
				C126.5,24.8,126.5,24.8,126.5,24.7z M128.9,23.8l-0.8-1.7l-0.8,1.7H128.9z"/>
			<path class="st2" d="M130.4,22.7c0-0.1,0.1-0.2,0.2-0.2c0.1,0,0.2,0.1,0.2,0.2v0.3c0.2-0.3,0.4-0.5,0.9-0.5c0.6,0,1,0.4,1,1v1.4
				c0,0.1-0.1,0.2-0.2,0.2c-0.1,0-0.2-0.1-0.2-0.2v-1.3c0-0.5-0.3-0.8-0.7-0.8c-0.4,0-0.7,0.3-0.7,0.8v1.3c0,0.1-0.1,0.2-0.2,0.2
				c-0.1,0-0.2-0.1-0.2-0.2V22.7z"/>
			<path class="st2" d="M133.2,23.8L133.2,23.8c0-0.7,0.5-1.3,1.3-1.3c0.7,0,1.3,0.6,1.3,1.3v0c0,0.7-0.6,1.3-1.3,1.3
				C133.8,25,133.2,24.5,133.2,23.8z M135.4,23.8L135.4,23.8c0-0.5-0.4-1-0.9-1c-0.5,0-0.9,0.4-0.9,1v0c0,0.5,0.4,1,0.9,1
				C135.1,24.7,135.4,24.3,135.4,23.8z"/>
			<path class="st2" d="M136.4,24.7c0,0-0.1-0.1-0.1-0.1c0-0.1,0.1-0.2,0.2-0.2c0,0,0.1,0,0.1,0c0.3,0.2,0.5,0.3,0.8,0.3
				c0.3,0,0.5-0.2,0.5-0.4v0c0-0.3-0.3-0.3-0.6-0.4c-0.4-0.1-0.8-0.2-0.8-0.7v0c0-0.4,0.4-0.7,0.8-0.7c0.3,0,0.6,0.1,0.8,0.2
				c0,0,0.1,0.1,0.1,0.2c0,0.1-0.1,0.2-0.2,0.2c0,0-0.1,0-0.1,0c-0.2-0.1-0.4-0.2-0.7-0.2c-0.3,0-0.5,0.2-0.5,0.4v0
				c0,0.2,0.3,0.3,0.6,0.4c0.4,0.1,0.8,0.3,0.8,0.7v0c0,0.5-0.4,0.7-0.9,0.7C137,25,136.6,24.9,136.4,24.7z"/>
		</g>
		<g>
			<path class="st1" d="M111.9,24.8c-7.7,8-16.8,7.9-20.8,5.3c-3.2-2.2-6.1-6.1-2.2-10.3c2.3-2.4,5-2.3,8.3-1c2.9,1.1,5.3,1.4,7-0.4
				c0.1-0.1,0.2-0.2,0.3-0.3c0,0,0.4-0.5,0.4-0.5c-3.3-3.3-7.7-3.3-9.4-3.2c-3.8,0.4-6.1,2.3-7.1,3.4c-5.4,5.7-3.9,13.9,1.9,17.9
				c7.5,5.1,18.3,1,25.8-6.2C115.3,28.6,112,24.9,111.9,24.8z"/>
			<path class="st1" d="M147.6,17.2c-1.2-2.5-3.2-4.6-5.7-6c-1.2-0.7-2.6-1.2-4.1-1.6c-1.5-0.3-3-0.5-4.6-0.4
				c-1.1,0.1-2.1,0.2-3.2,0.5c-1.9,0.5-3.6,1.4-5.2,2.4c-1.4,0.9-2.6,2-3.8,3.1c-1.3,1.2-2.5,2.6-3.6,4c0.9,1,1.8,1.9,2.6,2.9
				c0.5,0.5,0.9,1,1.4,1.5c0.2-0.2,0.4-0.5,0.6-0.7c0.9-1.1,1.9-2.2,2.8-3.2c0.7-0.7,1.4-1.4,2.1-1.9c1.1-0.9,2.1-1.5,3.1-2
				c0.5-0.2,1-0.4,1.6-0.5c0.5-0.1,1.1-0.2,1.6-0.3c1.3-0.1,2.5,0.1,3.6,0.5c1.7,0.6,3.1,1.6,4.1,2.9c0.5,0.7,0.9,1.4,1.2,2.2
				c0.3,0.8,0.4,1.6,0.4,2.6c0,1.2-0.2,2.4-0.7,3.4c-0.7,1.6-1.9,3-3.3,4c-0.7,0.5-1.5,0.9-2.4,1.2c-0.9,0.3-1.8,0.5-2.8,0.6
				c-0.6,0-1.2,0-1.8-0.1c-0.9-0.1-1.8-0.4-2.7-0.8c1.3,1,2.7,1.9,4.1,2.4c1.4,0.5,2.8,0.8,4.4,0.7c3.2-0.2,6-1.6,8-3.7
				c2.1-2.1,3.3-5,3.3-8C148.9,20.8,148.4,18.9,147.6,17.2z"/>
			<path class="st2" d="M137.6,35.4c-1.7,0.1-3.3-0.2-4.8-0.8c-1.5-0.6-2.9-1.4-4.2-2.5c-2.6-2.1-5-4.9-7.4-7.7
				c-0.6-0.7-1.2-1.3-1.8-2c-1.2-1.4-2.5-2.8-3.8-4.2c-1-1-2-2-3.1-2.9c-0.8-0.7-1.7-1.3-2.6-1.9c-1.3-0.9-2.8-1.6-4.4-2.1
				c-1.6-0.5-3.4-0.7-5.2-0.6c-2.1,0.1-4.2,0.7-6,1.5c-0.8,0.4-1.7,0.9-2.4,1.4l0,0l3.4-5.8c0.9,0.2,1.8,0.3,2.8,0.4
				c0.9,0.1,1.9,0.1,2.9,0c2.9-0.2,5.6-1.1,8.1-2.7c2.4-1.6,3.7-2.9,3.7-3.8c0-0.1,0-0.3-0.1-0.4c-0.1-0.1-0.2-0.2-0.3-0.2
				c-0.1,0-0.3,0.1-0.6,0.3c-1.8,1-3.7,1.6-5.7,1.7c-1.2,0.1-2.6,0-4-0.1c-1.4-0.2-5.1-1-5.1-1l-8,14.2l0,0c0,0,0,0,0,0
				c2.1-1.7,4.7-2.8,7.5-3c1.7-0.1,3.3,0.2,4.8,0.8c1.5,0.6,2.9,1.4,4.2,2.5c2.6,2.1,5,4.9,7.4,7.7c0.6,0.7,1.2,1.3,1.8,2
				c1.2,1.4,2.5,2.8,3.8,4.2c1,1,2,2,3.1,2.9c0.8,0.7,1.7,1.3,2.6,1.9c1.3,0.9,2.8,1.6,4.4,2.1c1.6,0.5,3.4,0.7,5.2,0.6
				c2.1-0.1,4.2-0.7,6-1.5c2.1-1,4-2.4,5.5-4.1C143,34.2,140.4,35.3,137.6,35.4z"/>
		</g>
	</g>
	<line class="st3" x1="70.1" y1="0.5" x2="70.1" y2="48.4"/>
	<g>
		<g>
			<path class="st2" d="M3.9,14.4C3.9,14.4,3.9,14.4,3.9,14.4c-1.5,0-2.7,1.2-2.7,2.7c0,0,0,0,0,0v11.5h5.5v-5.3h7.1v-3.5H6.7v-1.9
				h8.7v-3.5L3.9,14.4L3.9,14.4z"/>
			<path class="st2" d="M31.8,14.4C31.8,14.4,31.8,14.4,31.8,14.4c-1.2,0-2.2,0.8-2.6,1.9l-2,6.8l-2.4-8.7h-5.5v0c0,0,0,0,0,0
				c-1.5,0-2.7,1.2-2.7,2.7v11.6h5.1V17.5l3.3,11.1h4.3l3.4-11.1v11.1h5.1V14.4L31.8,14.4L31.8,14.4z"/>
			<path class="st2" d="M50.5,17.1v4.3c0,1.4-0.2,2.4-0.6,3c-0.4,0.6-1.2,0.8-2.2,0.8c-1.1,0-1.8-0.3-2.2-0.8
				c-0.4-0.6-0.6-1.5-0.6-3v-7h-2.8c-1.5,0-2.7,1.2-2.7,2.7v4.8c0,2.4,0.7,4.3,2,5.4c1.4,1.2,3.5,1.7,6.4,1.7c2.9,0,5-0.6,6.4-1.7
				c1.3-1.2,2-3,2-5.4v-7.5h-2.9C51.7,14.4,50.5,15.6,50.5,17.1"/>
		</g>
		<g>
			<path class="st2" d="M3.6,33.6c0,0.7-0.3,1.4-1.2,1.4c-1.1,0-1.3-1-1.3-2c0-1,0.2-2,1.3-2c0.8,0,1.1,0.5,1.2,1.2H3
				c0-0.4-0.2-0.8-0.7-0.8c-0.7,0-0.8,0.7-0.8,1.6c0,0.9,0.1,1.6,0.8,1.6c0.6,0,0.7-0.5,0.7-1H3.6z"/>
			<path class="st2" d="M4.4,31h2v0.4H4.8v1.2h1.5v0.4H4.8v1.4h1.6v0.4H4.4V31z"/>
			<path class="st2" d="M7.2,31h0.6l1.3,3.3h0V31h0.5v3.9H9l-1.3-3.2h0v3.2H7.2V31z"/>
			<path class="st2" d="M11.8,34.9h-0.5v-3.5h-1V31h2.5v0.4h-1V34.9z"/>
			<path class="st2" d="M13.5,31h1.3c0.6,0,1,0.4,1,1c0,0.4-0.1,0.9-0.6,1v0c0.3,0,0.5,0.3,0.6,0.7l0,0.7c0,0.4,0.1,0.5,0.2,0.6
				h-0.6c-0.1-0.1-0.1-0.4-0.1-0.6l0-0.6c0-0.5-0.3-0.6-0.6-0.6H14v1.7h-0.5V31z M14,32.8h0.5c0.3,0,0.8,0,0.8-0.8
				c0-0.4-0.3-0.6-0.7-0.6H14V32.8z"/>
			<path class="st2" d="M19.2,33c0,1-0.2,2-1.3,2c-1.1,0-1.3-1-1.3-2c0-1,0.2-2,1.3-2C19,30.9,19.2,32,19.2,33z M17.1,33
				c0,0.9,0.1,1.6,0.8,1.6c0.7,0,0.8-0.7,0.8-1.6c0-0.9-0.1-1.6-0.8-1.6C17.2,31.3,17.1,32.1,17.1,33z"/>
			<path class="st2" d="M21.7,31h0.5v2.8c0,0.6,0.2,0.8,0.7,0.8c0.5,0,0.7-0.3,0.7-0.8V31H24v2.8c0,0.8-0.4,1.2-1.2,1.2
				c-0.8,0-1.2-0.4-1.2-1.2V31z"/>
			<path class="st2" d="M24.9,31h0.6l1.3,3.3h0V31h0.5v3.9h-0.7l-1.3-3.2h0v3.2h-0.5V31z"/>
			<path class="st2" d="M28.3,31h0.5v3.9h-0.5V31z"/>
			<path class="st2" d="M29.4,31h0.5l0.8,3.4h0l0.8-3.4H32l-1,3.9h-0.6L29.4,31z"/>
			<path class="st2" d="M32.6,31h2v0.4h-1.5v1.2h1.5v0.4h-1.5v1.4h1.6v0.4h-2.1V31z"/>
			<path class="st2" d="M35.5,31h1.3c0.6,0,1,0.4,1,1c0,0.4-0.1,0.9-0.6,1v0c0.3,0,0.5,0.3,0.6,0.7l0,0.7c0,0.4,0.1,0.5,0.2,0.6
				h-0.6c-0.1-0.1-0.1-0.4-0.1-0.6l0-0.6c0-0.5-0.3-0.6-0.6-0.6H36v1.7h-0.5V31z M36,32.8h0.5c0.3,0,0.8,0,0.8-0.8
				c0-0.4-0.3-0.6-0.7-0.6H36V32.8z"/>
			<path class="st2" d="M40.4,32c0-0.4-0.1-0.7-0.6-0.7c-0.4,0-0.6,0.2-0.6,0.6c0,1.1,1.9,0.4,1.9,1.9c0,0.9-0.7,1.2-1.2,1.2
				c-0.9,0-1.2-0.5-1.2-1.3H39c0,0.4,0,0.9,0.7,0.9c0.4,0,0.7-0.3,0.7-0.7c0-1.1-1.9-0.5-1.9-1.9c0-0.4,0.2-1.1,1.2-1.1
				c0.7,0,1.1,0.4,1.1,1.1H40.4z"/>
			<path class="st2" d="M41.8,31h0.5v3.9h-0.5V31z"/>
			<path class="st2" d="M44.4,34.9h-0.5v-3.5h-1V31h2.5v0.4h-1V34.9z"/>
			<path class="st2" d="M46.6,31h0.6l1.1,3.9h-0.5l-0.3-1.1h-1.3l-0.3,1.1h-0.5L46.6,31z M46.3,33.4h1.1l-0.5-1.9h0L46.3,33.4z
				 M47,30h0.5l-0.6,0.8h-0.3L47,30z"/>
			<path class="st2" d="M48.9,31h1.3c0.6,0,1,0.4,1,1c0,0.4-0.1,0.9-0.6,1v0c0.3,0,0.5,0.3,0.6,0.7l0,0.7c0,0.4,0.1,0.5,0.2,0.6
				h-0.6c-0.1-0.1-0.1-0.4-0.1-0.6l0-0.6c0-0.5-0.3-0.6-0.6-0.6h-0.7v1.7h-0.5V31z M49.4,32.8h0.5c0.3,0,0.8,0,0.8-0.8
				c0-0.4-0.3-0.6-0.7-0.6h-0.6V32.8z"/>
			<path class="st2" d="M52.1,31h0.5v3.9h-0.5V31z"/>
			<path class="st2" d="M56,33c0,1-0.2,2-1.3,2c-1.1,0-1.3-1-1.3-2c0-1,0.2-2,1.3-2C55.8,30.9,56,32,56,33z M54,33
				c0,0.9,0.1,1.6,0.8,1.6c0.7,0,0.8-0.7,0.8-1.6c0-0.9-0.1-1.6-0.8-1.6C54.1,31.3,54,32.1,54,33z"/>
		</g>
	</g>
</g>
</svg>
