<?xml version="1.0" encoding="utf-8"?>
<!-- Generator: Adobe Illustrator 22.0.0, SVG Export Plug-In . SVG Version: 6.00 Build 0)  -->
<svg version="1.1" id="Camada_1" xmlns="http://www.w3.org/2000/svg" xmlns:xlink="http://www.w3.org/1999/xlink" x="0px" y="0px"
	 viewBox="0 0 28.3 28.3" style="enable-background:new 0 0 28.3 28.3;" xml:space="preserve">
<style type="text/css">
	.st0{fill:#58595B;}
</style>
<g>
	<path class="st0" d="M11.9,2c-1,0-1.8,0.8-1.8,1.8v14c0,1,0.8,1.8,1.8,1.8h10c1,0,1.8-0.8,1.8-1.8V6.4L19.2,2H11.9z M22.2,18H11.7
		V3.5h6.5v4h4L22.2,18z"/>
	<path class="st0" d="M8.9,22.5h11.8V21h-12V5H7.2v15.8C7.2,21.7,8,22.5,8.9,22.5z"/>
	<path class="st0" d="M5.9,25.5h11.8V24h-12V8H4.2v15.8C4.2,24.7,5,25.5,5.9,25.5z"/>
</g>
</svg>
