<?xml version="1.0" encoding="utf-8"?>
<!-- Generator: Adobe Illustrator 22.0.0, SVG Export Plug-In . SVG Version: 6.00 Build 0)  -->
<svg version="1.1" id="Camada_1" xmlns="http://www.w3.org/2000/svg" xmlns:xlink="http://www.w3.org/1999/xlink" x="0px" y="0px"
	 viewBox="0 0 28.3 28.3" style="enable-background:new 0 0 28.3 28.3;" xml:space="preserve">
<style type="text/css">
	.st0{fill:#58595B;}
</style>
<g>
	<path class="st0" d="M20.2,5.4h-14c-1,0-1.8,0.8-1.8,1.8v14c0,1,0.8,1.8,1.8,1.8h14c1,0,1.8-0.8,1.8-1.8v-14
		C21.9,6.2,21.2,5.4,20.2,5.4z M5.9,21.4V6.9h14.5l0,14.5H5.9z"/>
	<path class="st0" d="M15.3,17.3l1.5,1.5l1.1-1.1l-1.5-1.5l0.1-0.2c0.2-0.3,0.3-0.6,0.4-1l0-0.2h2.1v-1.5h-2.1l0-0.2
		c-0.1-0.3-0.2-0.7-0.4-1l-0.1-0.2l1.5-1.5l-1.1-1.1l-1.5,1.5L15.1,11c-0.3-0.2-0.6-0.3-1-0.4l-0.2,0V8.4h-1.5v2.1l-0.2,0
		c-0.3,0.1-0.7,0.2-1,0.4l-0.2,0.1L9.7,9.6l-1.1,1.1l1.5,1.5L10,12.3c-0.2,0.3-0.3,0.6-0.4,1l0,0.2H7.4v1.5h2.1l0,0.2
		c0.1,0.3,0.2,0.7,0.4,1l0.1,0.2l-1.5,1.5l1.1,1.1l1.5-1.5l0.2,0.1c0.3,0.2,0.6,0.3,1,0.4l0.2,0v2.1h1.5v-2.1l0.2,0
		c0.3-0.1,0.7-0.2,1-0.4L15.3,17.3z M13.2,16.4c-1.2,0-2.3-1-2.3-2.3s1-2.3,2.3-2.3s2.3,1,2.3,2.3S14.4,16.4,13.2,16.4z"/>
</g>
</svg>
