<?xml version="1.0" encoding="utf-8"?>
<!-- Generator: Adobe Illustrator 22.0.0, SVG Export Plug-In . SVG Version: 6.00 Build 0)  -->
<svg version="1.1" id="Camada_1" xmlns="http://www.w3.org/2000/svg" xmlns:xlink="http://www.w3.org/1999/xlink" x="0px" y="0px"
	 viewBox="0 0 28.3 28.3" style="enable-background:new 0 0 28.3 28.3;" xml:space="preserve">
<style type="text/css">
	.st0{fill:#58595B;}
</style>
<g>
	<path class="st0" d="M16.8,16.8c0.3,0.1,0.6,0.1,0.8-0.1l3.8-2.9h2.8c1,0,1.8-0.8,1.8-1.8v-7c0-1-0.8-1.8-1.8-1.8h-10
		c-1,0-1.8,0.8-1.8,1.8v2.8h1.5v-3h10.5v7.5h-3.3c-0.2,0-0.3,0.1-0.5,0.2l-2.8,2.1v-1.5c0-0.4-0.3-0.8-0.8-0.8h-1.8v1.5h1v2.3
		C16.4,16.5,16.6,16.7,16.8,16.8z"/>
	<path class="st0" d="M10.2,9.4c-2.1,0-3.8,1.7-3.8,3.8s1.7,3.8,3.8,3.8s3.8-1.7,3.8-3.8S12.2,9.4,10.2,9.4z M10.2,15.4
		c-1.2,0-2.3-1-2.3-2.3s1-2.3,2.3-2.3s2.3,1,2.3,2.3S11.4,15.4,10.2,15.4z"/>
	<path class="st0" d="M10.2,18.4c-4.6,0-7.8,2.4-7.8,5.8v0.8h15.5v-0.8C17.9,20.8,14.7,18.4,10.2,18.4z M4,23.4l0.1-0.3
		c0.6-2,3-3.2,6.1-3.2s5.4,1.2,6.1,3.2l0.1,0.3H4z"/>
</g>
</svg>
