<?xml version="1.0" encoding="utf-8"?>
<!-- Generator: Adobe Illustrator 22.0.0, SVG Export Plug-In . SVG Version: 6.00 Build 0)  -->
<svg version="1.1" id="Camada_1" xmlns="http://www.w3.org/2000/svg" xmlns:xlink="http://www.w3.org/1999/xlink" x="0px" y="0px"
	 viewBox="0 0 28.3 28.3" style="enable-background:new 0 0 28.3 28.3;" xml:space="preserve">
<style type="text/css">
	.st0{fill:#58595B;}
</style>
<g>
	<path class="st0" d="M3.8,7.5v15c0,1,0.8,1.8,1.8,1.8h18c1,0,1.8-0.8,1.8-1.8v-15c0-1-0.8-1.8-1.8-1.8h-3.3v-2h-1.5v5.5h1.5v-2h3.5
		v15.5H5.3V7.3h2V5.8H5.6C4.6,5.8,3.8,6.5,3.8,7.5z"/>
	<polygon class="st0" points="17.3,5.8 10.3,5.8 10.3,3.8 8.8,3.8 8.8,9.3 10.3,9.3 10.3,7.3 17.3,7.3 	"/>
	<rect x="7.8" y="11.8" class="st0" width="3.5" height="3.5"/>
	<rect x="12.8" y="11.8" class="st0" width="3.5" height="3.5"/>
	<rect x="17.8" y="11.8" class="st0" width="3.5" height="3.5"/>
	<rect x="7.8" y="16.8" class="st0" width="3.5" height="3.5"/>
	<rect x="12.8" y="16.8" class="st0" width="3.5" height="3.5"/>
</g>
</svg>
