<?xml version="1.0" encoding="utf-8"?>
<!-- Generator: Adobe Illustrator 22.0.0, SVG Export Plug-In . SVG Version: 6.00 Build 0)  -->
<svg version="1.1" id="Camada_1" xmlns="http://www.w3.org/2000/svg" xmlns:xlink="http://www.w3.org/1999/xlink" x="0px" y="0px"
	 viewBox="0 0 28.3 28.3" style="enable-background:new 0 0 28.3 28.3;" xml:space="preserve">
<style type="text/css">
	.st0{fill:#58595B;}
</style>
<path class="st0" d="M6,16.8l-1.4,5.6c-0.1,0.2,0,0.5,0.2,0.7c0.2,0.2,0.4,0.3,0.7,0.2l5.6-1.4c0.1,0,0.2-0.1,0.3-0.2l11.2-11.2
	c0.7-0.7,1.1-1.6,1.1-2.6c0-1-0.4-1.9-1.1-2.6l0,0c-0.7-0.7-1.6-1-2.6-1c-1,0-1.9,0.4-2.6,1.1L6.2,16.5C6.1,16.5,6.1,16.7,6,16.8z
	 M11.4,19.7L11,17.9l7.6-7.6l1.1,1.1L11.4,19.7z M18.5,6.3c0.8-0.8,2.3-0.8,3.2,0c0.4,0.4,0.6,1,0.6,1.6c0,0.6-0.2,1.2-0.6,1.6
	l-0.9,0.9l-3.2-3.2L18.5,6.3z M16.5,8.2l1.1,1.1L10,16.9l-1.8-0.4L16.5,8.2z M7.3,17.8l2.3,0.5l0.5,2.3l-3.7,0.9L7.3,17.8z"/>
</svg>
