<?xml version="1.0" encoding="utf-8"?>
<!-- Generator: Adobe Illustrator 22.0.0, SVG Export Plug-In . SVG Version: 6.00 Build 0)  -->
<svg version="1.1" id="Camada_1" xmlns="http://www.w3.org/2000/svg" xmlns:xlink="http://www.w3.org/1999/xlink" x="0px" y="0px"
	 viewBox="0 0 28.3 28.3" style="enable-background:new 0 0 28.3 28.3;" xml:space="preserve">
<style type="text/css">
	.st0{fill:#58595B;}
</style>
<g>
	<path class="st0" d="M25.9,16.2v-12c0-1-0.8-1.8-1.8-1.8h-14c-1,0-1.8,0.8-1.8,1.8v8.8h1.5v-9h3.5v6.3c0,0.3,0.2,0.6,0.5,0.7
		c0.3,0.1,0.6,0,0.8-0.2l2.5-2.5l2.5,2.5c0.2,0.2,0.5,0.3,0.8,0.2c0.3-0.1,0.5-0.4,0.5-0.7V3.9h3.5v12.5h-7v1.5h6.8
		C25.1,17.9,25.9,17.1,25.9,16.2z M19.4,8.4l-1.7-1.7c-0.3-0.3-0.8-0.3-1.1,0l-1.7,1.7V3.9h4.5V8.4z"/>
	<path class="st0" d="M7.9,16.9c-0.1-0.3-0.4-0.5-0.7-0.5h-4c-0.4,0-0.8,0.3-0.8,0.8v8c0,0.4,0.3,0.8,0.8,0.8h4
		c0.4,0,0.8-0.3,0.8-0.8v-0.3h11.3c0.2,0,0.5-0.1,0.6-0.3l3-4c0.2-0.2,0.2-0.5,0.1-0.8s-0.4-0.4-0.7-0.4H14l0.7-0.7
		c0.2-0.2,0.3-0.6,0.1-0.9l-1-2c-0.2-0.3-0.6-0.5-0.9-0.4l-5,1.7L7.9,16.9z M6.4,24.4H3.9v-6.5h2.5V24.4z M13.3,18l-1.6,1.6
		c-0.1,0.1-0.2,0.3-0.2,0.5l0,0.7h9.3l-1.9,2.5H7.9v-4.7l4.9-1.6L13.3,18z"/>
</g>
</svg>
