<?xml version="1.0" encoding="utf-8"?>
<!-- Generator: Adobe Illustrator 22.0.0, SVG Export Plug-In . SVG Version: 6.00 Build 0)  -->
<svg version="1.1" id="Camada_1" xmlns="http://www.w3.org/2000/svg" xmlns:xlink="http://www.w3.org/1999/xlink" x="0px" y="0px"
	 viewBox="0 0 28.3 28.3" style="enable-background:new 0 0 28.3 28.3;" xml:space="preserve">
<style type="text/css">
	.st0{fill:#58595B;}
</style>
<g>
	<path class="st0" d="M26.1,10.5v-2c0-0.3-0.2-0.6-0.6-0.7l-11-3c-0.1,0-0.3,0-0.4,0l-11,3C2.8,7.8,2.6,8.1,2.6,8.5v2
		c0,0.4,0.3,0.8,0.8,0.8h0.3v13h1.5v-13h18.5v13h1.5v-13h0.3C25.8,11.2,26.1,10.9,26.1,10.5z M24.6,9.7H4.1V9l10.3-2.8L24.6,9V9.7z"
		/>
	<path class="st0" d="M17.4,12.7h-6c-0.4,0-0.8,0.3-0.8,0.8v4.3H8.4c-0.4,0-0.7,0.3-0.7,0.8v5c0,0.4,0.3,0.8,0.7,0.8h12
		c0.4,0,0.8-0.3,0.8-0.8v-5c0-0.4-0.3-0.8-0.8-0.8h-2.3v-4.3C18.1,13,17.8,12.7,17.4,12.7z M12.1,14.2h1.5v2h1.5v-2h1.5v3.5h-4.5
		V14.2z M13.6,22.7H9.1v-3.5h1.5v2h1.5v-2h1.5V22.7z M19.6,19.2v3.5h-4.5v-3.5h1.5v2h1.5v-2H19.6z"/>
</g>
</svg>
