<?xml version="1.0" encoding="utf-8"?>
<!-- Generator: Adobe Illustrator 22.0.0, SVG Export Plug-In . SVG Version: 6.00 Build 0)  -->
<svg version="1.1" id="Camada_1" xmlns="http://www.w3.org/2000/svg" xmlns:xlink="http://www.w3.org/1999/xlink" x="0px" y="0px"
	 viewBox="0 0 28.3 28.3" style="enable-background:new 0 0 28.3 28.3;" xml:space="preserve">
<style type="text/css">
	.st0{fill:#58595B;}
</style>
<g>
	<path class="st0" d="M13.2,4.4c-5.4,0-9.8,4.4-9.8,9.8s4.4,9.8,9.8,9.8s9.8-4.4,9.8-9.8S18.6,4.4,13.2,4.4z M13.2,22.4
		c-4.5,0-8.3-3.7-8.3-8.3s3.7-8.3,8.3-8.3s8.3,3.7,8.3,8.3S17.8,22.4,13.2,22.4z"/>
	<g>
		<rect x="12.5" y="8.7" class="st0" width="1.6" height="1.6"/>
		<path class="st0" d="M15.2,19.3c-0.5,0-0.8-0.2-0.9-0.3c-0.1-0.1-0.2-0.4-0.2-1.3v-5.5h-2.7v0.2c0.5,0,0.8,0.2,0.9,0.3
			c0.1,0.1,0.2,0.4,0.2,1.3v3.7c0,0.9-0.1,1.2-0.2,1.3c-0.1,0.2-0.4,0.3-0.9,0.3v0.2h3.9V19.3z"/>
	</g>
</g>
</svg>
