<?xml version="1.0" encoding="utf-8"?>
<!-- Generator: Adobe Illustrator 22.0.0, SVG Export Plug-In . SVG Version: 6.00 Build 0)  -->
<svg version="1.1" id="Camada_1" xmlns="http://www.w3.org/2000/svg" xmlns:xlink="http://www.w3.org/1999/xlink" x="0px" y="0px"
	 viewBox="0 0 28.3 28.3" style="enable-background:new 0 0 28.3 28.3;" xml:space="preserve">
<style type="text/css">
	.st0{fill:#58595B;}
</style>
<g>
	<path class="st0" d="M13.5,5.1C10,5.1,7.1,8,7.1,11.6c0,4.1,4,9.5,6.5,12.6c2.5-3,6.5-8.5,6.5-12.6C20,8,17.1,5.1,13.5,5.1z
		 M13.7,21.1l-0.2,0.3l-0.2-0.3c-1.1-1.4-4.5-6.3-4.5-9.5c0-2.6,2.1-4.7,4.7-4.7c2.6,0,4.7,2.1,4.7,4.7
		C18.3,14.8,14.8,19.7,13.7,21.1z"/>
	<path class="st0" d="M13.5,9.6c-1.1,0-2,0.9-2,2s0.9,2,2,2c1.1,0,2-0.9,2-2S14.6,9.6,13.5,9.6z"/>
</g>
</svg>
