<?xml version="1.0" encoding="utf-8"?>
<!-- Generator: Adobe Illustrator 22.0.0, SVG Export Plug-In . SVG Version: 6.00 Build 0)  -->
<svg version="1.1" id="Camada_1" xmlns="http://www.w3.org/2000/svg" xmlns:xlink="http://www.w3.org/1999/xlink" x="0px" y="0px"
	 viewBox="0 0 28.3 28.3" style="enable-background:new 0 0 28.3 28.3;" xml:space="preserve">
<style type="text/css">
	.st0{fill:#58595B;}
</style>
<path class="st0" d="M19.8,12.2c0-2.1-0.8-4-2.3-5.5c-1.5-1.5-3.4-2.3-5.5-2.3S8,5.3,6.6,6.7c-1.5,1.5-2.3,3.4-2.3,5.5
	c0,2.1,0.8,4,2.3,5.5C8,19.1,10,19.9,12,19.9c1.7,0,3.4-0.6,4.7-1.6l0.2-0.1l5.3,5.3l1.1-1.1L18,17.1l0.1-0.2
	C19.2,15.6,19.8,13.9,19.8,12.2z M16.5,16.6c-1.2,1.2-2.8,1.8-4.4,1.8c-1.7,0-3.2-0.7-4.4-1.8c-1.2-1.2-1.8-2.7-1.8-4.4
	c0-1.7,0.7-3.2,1.8-4.4c1.2-1.2,2.7-1.8,4.4-1.8c1.7,0,3.2,0.7,4.4,1.8c1.2,1.2,1.8,2.7,1.8,4.4S17.6,15.4,16.5,16.6z"/>
</svg>
