<?xml version="1.0" encoding="utf-8"?>
<!-- Generator: Adobe Illustrator 22.0.0, SVG Export Plug-In . SVG Version: 6.00 Build 0)  -->
<svg version="1.1" id="Camada_1" xmlns="http://www.w3.org/2000/svg" xmlns:xlink="http://www.w3.org/1999/xlink" x="0px" y="0px"
	 viewBox="0 0 28.3 28.3" style="enable-background:new 0 0 28.3 28.3;" xml:space="preserve">
<style type="text/css">
	.st0{fill:#58595B;}
</style>
<path class="st0" d="M18.6,19.3c1.5-1.5,2.4-3.5,2.4-5.6c0-2.1-0.8-4.1-2.4-5.6l0,0L16.8,2H9.6L7.9,8.1l0,0
	c-1.5,1.5-2.4,3.5-2.4,5.6c0,2.1,0.8,4.1,2.4,5.6l0,0l1.7,6.1h7.1L18.6,19.3L18.6,19.3z M10.8,3.5h4.9l0.9,3.3l-0.5-0.2
	c-1.9-0.8-3.9-0.7-5.8,0L9.8,6.8L10.8,3.5z M15.6,24h-4.9l-0.9-3.3l0.5,0.2c1.9,0.7,3.9,0.7,5.8,0l0.5-0.2L15.6,24z M13.2,20
	c-3.4,0-6.3-2.8-6.3-6.3c0-3.4,2.8-6.3,6.3-6.3c3.4,0,6.2,2.8,6.2,6.3C19.4,17.2,16.6,20,13.2,20z"/>
<polygon class="st0" points="15.6,16 13.2,11.3 10.8,16 13.2,14.5 "/>
</svg>
